<mxfile host="app.diagrams.net" modified="2023-09-06T12:13:51.328Z" agent="Mozilla/5.0 (Windows NT 10.0; Win64; x64; rv:109.0) Gecko/20100101 Firefox/116.0" version="21.7.2" etag="EbhC_9sUTmuWrNM5itH1" type="github">
  <diagram name="Page-1" id="ZgrfCayHFoeyJBvmWyLj">
    <mxGraphModel>
      <root>
        <mxCell id="0" />
        <mxCell id="1" parent="0" />
      </root>
    </mxGraphModel>
  </diagram>
</mxfile>
